:SAMPLES-PER-SECOND 24
:FULLY-SPECIFIED
:DEGREES
139
root  11.4863 35.957 20.0934 10.0577 62.1901 -1.77417
RightUpLeg  -42.8649 4.80773 -8.61001
RightLeg  46.5496 7.02886 7.56259
RightFoot  -14.1269 -0.0683929 1.12362
RightToes  -2.08645e-008 3.77894e-005 6.81332e-007
Spine  25.9837 -5.42742 12.1741
Spine1  -0.300254 -3.96295 4.86635
HEad  -47.5363 14.556 -25.7846
LeftShoulder1  9.84938 -15.1501 -46.093
LeftArm  10.0695 -0.514039 -28.6612
LeftForeArm  101.338 -80.4977 -86.4603
LeftHand  -0.82476 -3.08452 11.5069
RightShoulder  4.52144 7.47079 35.2897
RightArm  -1.40815 20.8911 30.5871
RightForeArm  34.308 66.5829 22.9346
RightHand  -1.45782 7.10985 -13.8022
LeftUpLeg  -15.0451 -8.10504 10.4711
LeftLeg  40.2968 3.85621 3.90912
LeftFoot  -29.7653 -2.39165 -15.7511
LeftToes  1.24767e-006 1.47042e-008 1.32732e-009
140
root  11.2359 36.4957 21.615 23.8597 69.6879 9.17822
RightUpLeg  -43.9467 1.58843 -9.88552
RightLeg  45.6191 2.33346 2.24546
RightFoot  -14.2594 -0.11772 -0.820042
RightToes  -2.08645e-008 3.77894e-005 6.81332e-007
Spine  25.7059 -4.02427 20.6271
Spine1  -3.79262 1.16453 -7.10308
HEad  -45.3623 20.8513 -30.0466
LeftShoulder1  9.79735 -15.1194 -45.9247
LeftArm  12.6465 8.4199 -23.0047
LeftForeArm  137.649 -78.78 -123.327
LeftHand  -0.561706 -2.35618 8.57768
RightShoulder  3.94473 7.09967 31.297
RightArm  5.44556 33.6678 43.1615
RightForeArm  38.7684 66.1246 21.6624
RightHand  -1.34807 7.682 -12.266
LeftUpLeg  -20.2308 -4.81448 12.1211
LeftLeg  36.4895 0.164973 0.50503
LeftFoot  -23.9363 -1.50924 -14.9057
LeftToes  1.24767e-006 1.47042e-008 1.32732e-009
141
root  10.9965 37.4388 23.3775 58.7128 76.5055 42.9631
RightUpLeg  -41.5471 -1.35015 -12.3607
RightLeg  42.8115 -3.89654 -4.16604
RightFoot  -13.5469 -0.131372 -2.09289
RightToes  -2.08645e-008 3.77894e-005 6.81332e-007
Spine  26.5533 -2.23755 26.579
Spine1  -6.29537 5.85057 -19.4546
HEad  -42.6455 26.4868 -30.5952
LeftShoulder1  8.88473 -14.6296 -42.6162
LeftArm  13.4862 12.3008 -21.427
LeftForeArm  149.553 -76.9654 -134.678
LeftHand  -0.405622 -2.58215 6.13916
RightShoulder  3.07935 6.52281 24.5905
RightArm  13.229 42.5503 54.7647
RightForeArm  35.955 60.9404 16.9536
RightHand  -1.46102 7.4409 -13.4923
LeftUpLeg  -23.4405 -1.37278 12.9846
LeftLeg  31.3936 7.85449 5.37793
LeftFoot  -21.4949 -0.852279 -10.99
LeftToes  1.24767e-006 1.47042e-008 1.32732e-009
142
root  11.0581 38.5708 25.2117 108.646 74.5237 93.5165
RightUpLeg  -35.923 -6.29576 -14.9183
RightLeg  38.865 -11.0129 -9.63794
RightFoot  -11.6491 -0.0846583 -2.1931
RightToes  -2.08645e-008 3.77894e-005 6.81332e-007
Spine  27.9927 -0.393804 28.7733
Spine1  -7.21993 9.6574 -29.6217
HEad  -41.8553 31.5425 -29.7766
LeftShoulder1  7.56348 -13.7778 -37.6674
LeftArm  13.3073 10.8291 -24.2988
LeftForeArm  162.848 -73.2531 -146.97
LeftHand  -0.338066 -3.25123 4.78726
RightShoulder  2.4049 6.20106 18.273
RightArm  19.3079 47.8094 55.8751
RightForeArm  27.4036 51.0219 11.7367
RightHand  -1.42331 8.29561 -12.3778
LeftUpLeg  -25.3569 1.58455 14.8509
LeftLeg  32.1445 15.9623 10.8842
LeftFoot  -20.9389 -0.441115 -6.74248
LeftToes  1.24767e-006 1.47042e-008 1.32732e-009
143
root  11.6791 39.7134 26.9141 136.102 64.6364 120.875
RightUpLeg  -28.8934 -14.337 -17.6127
RightLeg  33.1888 -16.8635 -11.7953
RightFoot  -9.79752 -0.0173109 -3.4194
RightToes  -2.08645e-008 3.77894e-005 6.81332e-007
Spine  27.6961 0.667492 27.7928
Spine1  -8.87514 10.938 -38.9322
HEad  -41.7468 38.1233 -29.0947
LeftShoulder1  5.97341 -12.3923 -31.5367
LeftArm  14.9159 2.479 -25.7773
LeftForeArm  172.714 -66.9887 -157.444
LeftHand  -0.199176 -2.92471 3.01691
RightShoulder  2.37013 6.70422 16.5547
RightArm  24.7727 45.8223 46.7153
RightForeArm  22.0014 42.0636 8.6336
RightHand  -0.766315 11.2063 -5.7291
LeftUpLeg  -28.0589 3.73229 19.1534
LeftLeg  39.7539 17.1755 15.1081
LeftFoot  -22.0145 -0.398226 -5.68119
LeftToes  1.24767e-006 1.47042e-008 1.32732e-009
144
root  12.7941 40.9297 28.3338 149.318 52.8959 133.363
RightUpLeg  -20.5149 -22.747 -19.8793
RightLeg  25.1799 -20.4157 -10.548
RightFoot  -6.65615 0.0897426 -3.21063
RightToes  -2.08645e-008 3.77894e-005 6.81332e-007
Spine  24.8849 0.557017 24.7086
Spine1  -9.8469 9.77952 -46.2094
HEad  -43.3576 46.3094 -31.2235
LeftShoulder1  4.13946 -10.0301 -24.3209
LeftArm  17.2612 -17.3328 -29.7986
LeftForeArm  172.34 -67.3762 -157.12
LeftHand  -0.168963 -3.80611 2.38483
RightShoulder  2.75072 7.53796 18.4081
RightArm  31.5943 36.6784 39.7756
RightForeArm  17.2338 31.4003 5.63196
RightHand  -0.364755 12.0074 -2.84806
LeftUpLeg  -29.7343 9.18954 26.1873
LeftLeg  45.1278 19.309 19.935
LeftFoot  -22.2493 -0.270457 -4.20698
LeftToes  1.24767e-006 1.47042e-008 1.32732e-009
145
root  14.2736 42.3388 29.2229 157.392 39.1678 141.768
RightUpLeg  -9.09238 -27.1792 -23.9421
RightLeg  17.4722 -31.5716 -8.94189
RightFoot  0.229678 -0.140272 1.21357
RightToes  -2.08645e-008 3.77894e-005 6.81332e-007
Spine  19.4104 0.298012 17.805
Spine1  -6.28969 8.63503 -44.8877
HEad  -47.1308 55.1158 -36.9589
LeftShoulder1  3.63247 -9.21485 -22.2745
LeftArm  27.8236 -43.4032 -41.7333
LeftForeArm  155.762 -76.6957 -136.846
LeftHand  -0.0871299 -5.62911 1.24257
RightShoulder  3.08968 7.73984 21.1737
RightArm  28.0501 22.0412 34.0688
RightForeArm  13.9735 19.2705 7.21396
RightHand  -0.482091 12.3804 -3.57576
LeftUpLeg  -30.4614 16.1455 34.1661
LeftLeg  42.9332 23.8235 22.2416
LeftFoot  -21.0682 -0.152684 -3.2723
LeftToes  1.24767e-006 1.47042e-008 1.32732e-009
